<?xml version="1.0" standalone="no"?>
<svg xmlns:xlink="http://www.w3.org/1999/xlink" id="wave" style="transform:rotate(0deg); transition: 0.3s" viewBox="0 0 1440 120" version="1.1" xmlns="http://www.w3.org/2000/svg"><defs><linearGradient id="sw-gradient-0" x1="0" x2="0" y1="1" y2="0"><stop stop-color="rgba(169, 214, 229, 1)" offset="0%"/><stop stop-color="rgba(169, 214, 229, 1)" offset="100%"/></linearGradient></defs><path style="transform:translate(0, 0px); opacity:1" fill="url(#sw-gradient-0)" d="M0,36L24,46C48,56,96,76,144,88C192,100,240,104,288,104C336,104,384,100,432,94C480,88,528,80,576,70C624,60,672,48,720,46C768,44,816,52,864,64C912,76,960,92,1008,92C1056,92,1104,76,1152,74C1200,72,1248,84,1296,88C1344,92,1392,88,1440,86C1488,84,1536,84,1584,86C1632,88,1680,92,1728,90C1776,88,1824,80,1872,70C1920,60,1968,48,2016,40C2064,32,2112,28,2160,26C2208,24,2256,24,2304,28C2352,32,2400,40,2448,52C2496,64,2544,80,2592,84C2640,88,2688,80,2736,78C2784,76,2832,80,2880,80C2928,80,2976,76,3024,74C3072,72,3120,72,3168,60C3216,48,3264,24,3312,26C3360,28,3408,56,3432,70L3456,84L3456,120L3432,120C3408,120,3360,120,3312,120C3264,120,3216,120,3168,120C3120,120,3072,120,3024,120C2976,120,2928,120,2880,120C2832,120,2784,120,2736,120C2688,120,2640,120,2592,120C2544,120,2496,120,2448,120C2400,120,2352,120,2304,120C2256,120,2208,120,2160,120C2112,120,2064,120,2016,120C1968,120,1920,120,1872,120C1824,120,1776,120,1728,120C1680,120,1632,120,1584,120C1536,120,1488,120,1440,120C1392,120,1344,120,1296,120C1248,120,1200,120,1152,120C1104,120,1056,120,1008,120C960,120,912,120,864,120C816,120,768,120,720,120C672,120,624,120,576,120C528,120,480,120,432,120C384,120,336,120,288,120C240,120,192,120,144,120C96,120,48,120,24,120L0,120Z"/><defs><linearGradient id="sw-gradient-1" x1="0" x2="0" y1="1" y2="0"><stop stop-color="rgba(209, 232, 226, 1)" offset="0%"/><stop stop-color="rgba(209, 232, 226, 1)" offset="100%"/></linearGradient></defs><path style="transform:translate(0, 50px); opacity:0.9" fill="url(#sw-gradient-1)" d="M0,96L24,86C48,76,96,56,144,48C192,40,240,44,288,38C336,32,384,16,432,26C480,36,528,72,576,74C624,76,672,44,720,36C768,28,816,44,864,56C912,68,960,76,1008,68C1056,60,1104,36,1152,40C1200,44,1248,76,1296,90C1344,104,1392,100,1440,94C1488,88,1536,80,1584,64C1632,48,1680,24,1728,18C1776,12,1824,24,1872,38C1920,52,1968,68,2016,62C2064,56,2112,28,2160,14C2208,0,2256,0,2304,18C2352,36,2400,72,2448,86C2496,100,2544,92,2592,76C2640,60,2688,36,2736,30C2784,24,2832,36,2880,50C2928,64,2976,80,3024,74C3072,68,3120,40,3168,32C3216,24,3264,36,3312,52C3360,68,3408,88,3432,98L3456,108L3456,120L3432,120C3408,120,3360,120,3312,120C3264,120,3216,120,3168,120C3120,120,3072,120,3024,120C2976,120,2928,120,2880,120C2832,120,2784,120,2736,120C2688,120,2640,120,2592,120C2544,120,2496,120,2448,120C2400,120,2352,120,2304,120C2256,120,2208,120,2160,120C2112,120,2064,120,2016,120C1968,120,1920,120,1872,120C1824,120,1776,120,1728,120C1680,120,1632,120,1584,120C1536,120,1488,120,1440,120C1392,120,1344,120,1296,120C1248,120,1200,120,1152,120C1104,120,1056,120,1008,120C960,120,912,120,864,120C816,120,768,120,720,120C672,120,624,120,576,120C528,120,480,120,432,120C384,120,336,120,288,120C240,120,192,120,144,120C96,120,48,120,24,120L0,120Z"/></svg>