<?xml version="1.0" standalone="no"?>
<svg xmlns:xlink="http://www.w3.org/1999/xlink" id="wave" style="transform:rotate(0deg); transition: 0.3s" viewBox="0 0 1440 110" version="1.1" xmlns="http://www.w3.org/2000/svg"><defs><linearGradient id="sw-gradient-0" x1="0" x2="0" y1="1" y2="0"><stop stop-color="rgba(169, 214, 229, 1)" offset="0%"/><stop stop-color="rgba(169, 214, 229, 1)" offset="100%"/></linearGradient></defs><path style="transform:translate(0, 0px); opacity:1" fill="url(#sw-gradient-0)" d="M0,22L18.5,31.2C36.9,40,74,59,111,62.3C147.7,66,185,55,222,47.7C258.5,40,295,37,332,38.5C369.2,40,406,48,443,55C480,62,517,70,554,77C590.8,84,628,92,665,95.3C701.5,99,738,99,775,97.2C812.3,95,849,92,886,91.7C923.1,92,960,95,997,80.7C1033.8,66,1071,33,1108,31.2C1144.6,29,1182,59,1218,75.2C1255.4,92,1292,95,1329,86.2C1366.2,77,1403,55,1440,42.2C1476.9,29,1514,26,1551,25.7C1587.7,26,1625,29,1662,29.3C1698.5,29,1735,26,1772,25.7C1809.2,26,1846,29,1883,34.8C1920,40,1957,48,1994,49.5C2030.8,51,2068,48,2105,38.5C2141.5,29,2178,15,2215,7.3C2252.3,0,2289,0,2326,5.5C2363.1,11,2400,22,2437,38.5C2473.8,55,2511,77,2548,77C2584.6,77,2622,55,2640,44L2658.5,33L2658.5,110L2640,110C2621.5,110,2585,110,2548,110C2510.8,110,2474,110,2437,110C2400,110,2363,110,2326,110C2289.2,110,2252,110,2215,110C2178.5,110,2142,110,2105,110C2067.7,110,2031,110,1994,110C1956.9,110,1920,110,1883,110C1846.2,110,1809,110,1772,110C1735.4,110,1698,110,1662,110C1624.6,110,1588,110,1551,110C1513.8,110,1477,110,1440,110C1403.1,110,1366,110,1329,110C1292.3,110,1255,110,1218,110C1181.5,110,1145,110,1108,110C1070.8,110,1034,110,997,110C960,110,923,110,886,110C849.2,110,812,110,775,110C738.5,110,702,110,665,110C627.7,110,591,110,554,110C516.9,110,480,110,443,110C406.2,110,369,110,332,110C295.4,110,258,110,222,110C184.6,110,148,110,111,110C73.8,110,37,110,18,110L0,110Z"/><defs><linearGradient id="sw-gradient-1" x1="0" x2="0" y1="1" y2="0"><stop stop-color="rgba(169, 214, 229, 1)" offset="0%"/><stop stop-color="rgba(169, 214, 229, 1)" offset="100%"/></linearGradient></defs><path style="transform:translate(0, 50px); opacity:0.9" fill="url(#sw-gradient-1)" d="M0,0L18.5,1.8C36.9,4,74,7,111,11C147.7,15,185,18,222,27.5C258.5,37,295,51,332,60.5C369.2,70,406,73,443,71.5C480,70,517,62,554,55C590.8,48,628,40,665,31.2C701.5,22,738,11,775,16.5C812.3,22,849,44,886,49.5C923.1,55,960,44,997,49.5C1033.8,55,1071,77,1108,78.8C1144.6,81,1182,62,1218,47.7C1255.4,33,1292,22,1329,23.8C1366.2,26,1403,40,1440,49.5C1476.9,59,1514,62,1551,58.7C1587.7,55,1625,44,1662,38.5C1698.5,33,1735,33,1772,44C1809.2,55,1846,77,1883,78.8C1920,81,1957,62,1994,60.5C2030.8,59,2068,73,2105,82.5C2141.5,92,2178,95,2215,88C2252.3,81,2289,62,2326,58.7C2363.1,55,2400,66,2437,66C2473.8,66,2511,55,2548,44C2584.6,33,2622,22,2640,16.5L2658.5,11L2658.5,110L2640,110C2621.5,110,2585,110,2548,110C2510.8,110,2474,110,2437,110C2400,110,2363,110,2326,110C2289.2,110,2252,110,2215,110C2178.5,110,2142,110,2105,110C2067.7,110,2031,110,1994,110C1956.9,110,1920,110,1883,110C1846.2,110,1809,110,1772,110C1735.4,110,1698,110,1662,110C1624.6,110,1588,110,1551,110C1513.8,110,1477,110,1440,110C1403.1,110,1366,110,1329,110C1292.3,110,1255,110,1218,110C1181.5,110,1145,110,1108,110C1070.8,110,1034,110,997,110C960,110,923,110,886,110C849.2,110,812,110,775,110C738.5,110,702,110,665,110C627.7,110,591,110,554,110C516.9,110,480,110,443,110C406.2,110,369,110,332,110C295.4,110,258,110,222,110C184.6,110,148,110,111,110C73.8,110,37,110,18,110L0,110Z"/></svg>