<?xml version="1.0" standalone="no"?>
<svg xmlns:xlink="http://www.w3.org/1999/xlink" id="wave" style="transform:rotate(180deg); transition: 0.3s" viewBox="0 0 1440 100" version="1.1" xmlns="http://www.w3.org/2000/svg"><defs><linearGradient id="sw-gradient-0" x1="0" x2="0" y1="1" y2="0"><stop stop-color="rgba(0, 0, 0, 1)" offset="0%"/><stop stop-color="rgba(226, 226, 226, 1)" offset="100%"/></linearGradient></defs><path style="transform:translate(0, 0px); opacity:1" fill="url(#sw-gradient-0)" d="M0,70L17.1,60C34.3,50,69,30,103,28.3C137.1,27,171,43,206,55C240,67,274,73,309,68.3C342.9,63,377,47,411,40C445.7,33,480,37,514,43.3C548.6,50,583,60,617,63.3C651.4,67,686,63,720,61.7C754.3,60,789,60,823,50C857.1,40,891,20,926,16.7C960,13,994,27,1029,41.7C1062.9,57,1097,73,1131,73.3C1165.7,73,1200,57,1234,56.7C1268.6,57,1303,73,1337,68.3C1371.4,63,1406,37,1440,28.3C1474.3,20,1509,30,1543,38.3C1577.1,47,1611,53,1646,60C1680,67,1714,73,1749,68.3C1782.9,63,1817,47,1851,48.3C1885.7,50,1920,70,1954,68.3C1988.6,67,2023,43,2057,38.3C2091.4,33,2126,47,2160,56.7C2194.3,67,2229,73,2263,73.3C2297.1,73,2331,67,2366,60C2400,53,2434,47,2451,43.3L2468.6,40L2468.6,100L2451.4,100C2434.3,100,2400,100,2366,100C2331.4,100,2297,100,2263,100C2228.6,100,2194,100,2160,100C2125.7,100,2091,100,2057,100C2022.9,100,1989,100,1954,100C1920,100,1886,100,1851,100C1817.1,100,1783,100,1749,100C1714.3,100,1680,100,1646,100C1611.4,100,1577,100,1543,100C1508.6,100,1474,100,1440,100C1405.7,100,1371,100,1337,100C1302.9,100,1269,100,1234,100C1200,100,1166,100,1131,100C1097.1,100,1063,100,1029,100C994.3,100,960,100,926,100C891.4,100,857,100,823,100C788.6,100,754,100,720,100C685.7,100,651,100,617,100C582.9,100,549,100,514,100C480,100,446,100,411,100C377.1,100,343,100,309,100C274.3,100,240,100,206,100C171.4,100,137,100,103,100C68.6,100,34,100,17,100L0,100Z"/></svg>