<?xml version="1.0" standalone="no"?>
<svg xmlns:xlink="http://www.w3.org/1999/xlink" id="wave" style="transform:rotate(180deg); transition: 0.3s" viewBox="0 0 1440 100" version="1.1" xmlns="http://www.w3.org/2000/svg"><defs><linearGradient id="sw-gradient-0" x1="0" x2="0" y1="1" y2="0"><stop stop-color="rgba(226, 226, 226, 1)" offset="0%"/><stop stop-color="rgba(136.977, 136.977, 136.977, 1)" offset="100%"/></linearGradient></defs><path style="transform:translate(0, 0px); opacity:1" fill="url(#sw-gradient-0)" d="M0,60L26.7,65C53.3,70,107,80,160,85C213.3,90,267,90,320,88.3C373.3,87,427,83,480,75C533.3,67,587,53,640,51.7C693.3,50,747,60,800,68.3C853.3,77,907,83,960,71.7C1013.3,60,1067,30,1120,28.3C1173.3,27,1227,53,1280,61.7C1333.3,70,1387,60,1440,58.3C1493.3,57,1547,63,1600,66.7C1653.3,70,1707,70,1760,66.7C1813.3,63,1867,57,1920,60C1973.3,63,2027,77,2080,81.7C2133.3,87,2187,83,2240,70C2293.3,57,2347,33,2400,35C2453.3,37,2507,63,2560,75C2613.3,87,2667,83,2720,76.7C2773.3,70,2827,60,2880,46.7C2933.3,33,2987,17,3040,13.3C3093.3,10,3147,20,3200,31.7C3253.3,43,3307,57,3360,61.7C3413.3,67,3467,63,3520,58.3C3573.3,53,3627,47,3680,45C3733.3,43,3787,47,3813,48.3L3840,50L3840,100L3813.3,100C3786.7,100,3733,100,3680,100C3626.7,100,3573,100,3520,100C3466.7,100,3413,100,3360,100C3306.7,100,3253,100,3200,100C3146.7,100,3093,100,3040,100C2986.7,100,2933,100,2880,100C2826.7,100,2773,100,2720,100C2666.7,100,2613,100,2560,100C2506.7,100,2453,100,2400,100C2346.7,100,2293,100,2240,100C2186.7,100,2133,100,2080,100C2026.7,100,1973,100,1920,100C1866.7,100,1813,100,1760,100C1706.7,100,1653,100,1600,100C1546.7,100,1493,100,1440,100C1386.7,100,1333,100,1280,100C1226.7,100,1173,100,1120,100C1066.7,100,1013,100,960,100C906.7,100,853,100,800,100C746.7,100,693,100,640,100C586.7,100,533,100,480,100C426.7,100,373,100,320,100C266.7,100,213,100,160,100C106.7,100,53,100,27,100L0,100Z"/></svg>