<?xml version="1.0" standalone="no"?>
<svg xmlns:xlink="http://www.w3.org/1999/xlink" id="wave" style="transform:rotate(180deg); transition: 0.3s" viewBox="0 0 1440 100" version="1.1" xmlns="http://www.w3.org/2000/svg"><defs><linearGradient id="sw-gradient-0" x1="0" x2="0" y1="1" y2="0"><stop stop-color="rgba(209, 232, 226, 1)" offset="0%"/><stop stop-color="rgba(209, 232, 226, 1)" offset="100%"/></linearGradient></defs><path style="transform:translate(0, 0px); opacity:1" fill="url(#sw-gradient-0)" d="M0,40L40,46.7C80,53,160,67,240,65C320,63,400,47,480,45C560,43,640,57,720,56.7C800,57,880,43,960,46.7C1040,50,1120,70,1200,66.7C1280,63,1360,37,1440,23.3C1520,10,1600,10,1680,18.3C1760,27,1840,43,1920,53.3C2000,63,2080,67,2160,68.3C2240,70,2320,70,2400,70C2480,70,2560,70,2640,66.7C2720,63,2800,57,2880,51.7C2960,47,3040,43,3120,40C3200,37,3280,33,3360,38.3C3440,43,3520,57,3600,60C3680,63,3760,57,3840,50C3920,43,4000,37,4080,35C4160,33,4240,37,4320,33.3C4400,30,4480,20,4560,28.3C4640,37,4720,63,4800,66.7C4880,70,4960,50,5040,50C5120,50,5200,70,5280,68.3C5360,67,5440,43,5520,35C5600,27,5680,33,5720,36.7L5760,40L5760,100L5720,100C5680,100,5600,100,5520,100C5440,100,5360,100,5280,100C5200,100,5120,100,5040,100C4960,100,4880,100,4800,100C4720,100,4640,100,4560,100C4480,100,4400,100,4320,100C4240,100,4160,100,4080,100C4000,100,3920,100,3840,100C3760,100,3680,100,3600,100C3520,100,3440,100,3360,100C3280,100,3200,100,3120,100C3040,100,2960,100,2880,100C2800,100,2720,100,2640,100C2560,100,2480,100,2400,100C2320,100,2240,100,2160,100C2080,100,2000,100,1920,100C1840,100,1760,100,1680,100C1600,100,1520,100,1440,100C1360,100,1280,100,1200,100C1120,100,1040,100,960,100C880,100,800,100,720,100C640,100,560,100,480,100C400,100,320,100,240,100C160,100,80,100,40,100L0,100Z"/></svg>