<?xml version="1.0" standalone="no"?>
<svg xmlns:xlink="http://www.w3.org/1999/xlink" id="wave" style="transform:rotate(0deg); transition: 0.3s" viewBox="0 0 1440 150" version="1.1" xmlns="http://www.w3.org/2000/svg"><defs><linearGradient id="sw-gradient-0" x1="0" x2="0" y1="1" y2="0"><stop stop-color="rgba(209, 232, 226, 1)" offset="0%"/><stop stop-color="rgba(209, 232, 226, 1)" offset="100%"/></linearGradient></defs><path style="transform:translate(0, 0px); opacity:1" fill="url(#sw-gradient-0)" d="M0,90L26.7,85C53.3,80,107,70,160,55C213.3,40,267,20,320,22.5C373.3,25,427,50,480,60C533.3,70,587,65,640,67.5C693.3,70,747,80,800,82.5C853.3,85,907,80,960,75C1013.3,70,1067,65,1120,75C1173.3,85,1227,110,1280,115C1333.3,120,1387,105,1440,87.5C1493.3,70,1547,50,1600,47.5C1653.3,45,1707,60,1760,65C1813.3,70,1867,65,1920,65C1973.3,65,2027,70,2080,67.5C2133.3,65,2187,55,2240,50C2293.3,45,2347,45,2400,45C2453.3,45,2507,45,2560,50C2613.3,55,2667,65,2720,80C2773.3,95,2827,115,2880,122.5C2933.3,130,2987,125,3040,117.5C3093.3,110,3147,100,3200,97.5C3253.3,95,3307,100,3360,100C3413.3,100,3467,95,3520,77.5C3573.3,60,3627,30,3680,15C3733.3,0,3787,0,3813,0L3840,0L3840,150L3813.3,150C3786.7,150,3733,150,3680,150C3626.7,150,3573,150,3520,150C3466.7,150,3413,150,3360,150C3306.7,150,3253,150,3200,150C3146.7,150,3093,150,3040,150C2986.7,150,2933,150,2880,150C2826.7,150,2773,150,2720,150C2666.7,150,2613,150,2560,150C2506.7,150,2453,150,2400,150C2346.7,150,2293,150,2240,150C2186.7,150,2133,150,2080,150C2026.7,150,1973,150,1920,150C1866.7,150,1813,150,1760,150C1706.7,150,1653,150,1600,150C1546.7,150,1493,150,1440,150C1386.7,150,1333,150,1280,150C1226.7,150,1173,150,1120,150C1066.7,150,1013,150,960,150C906.7,150,853,150,800,150C746.7,150,693,150,640,150C586.7,150,533,150,480,150C426.7,150,373,150,320,150C266.7,150,213,150,160,150C106.7,150,53,150,27,150L0,150Z"/><defs><linearGradient id="sw-gradient-1" x1="0" x2="0" y1="1" y2="0"><stop stop-color="rgba(226, 226, 226, 1)" offset="0%"/><stop stop-color="rgba(226, 226, 226, 1)" offset="100%"/></linearGradient></defs><path style="transform:translate(0, 50px); opacity:0.9" fill="url(#sw-gradient-1)" d="M0,45L26.7,57.5C53.3,70,107,95,160,95C213.3,95,267,70,320,55C373.3,40,427,35,480,45C533.3,55,587,80,640,92.5C693.3,105,747,105,800,95C853.3,85,907,65,960,70C1013.3,75,1067,105,1120,97.5C1173.3,90,1227,45,1280,37.5C1333.3,30,1387,60,1440,65C1493.3,70,1547,50,1600,50C1653.3,50,1707,70,1760,75C1813.3,80,1867,70,1920,60C1973.3,50,2027,40,2080,37.5C2133.3,35,2187,40,2240,55C2293.3,70,2347,95,2400,102.5C2453.3,110,2507,100,2560,95C2613.3,90,2667,90,2720,95C2773.3,100,2827,110,2880,95C2933.3,80,2987,40,3040,40C3093.3,40,3147,80,3200,80C3253.3,80,3307,40,3360,37.5C3413.3,35,3467,70,3520,72.5C3573.3,75,3627,45,3680,30C3733.3,15,3787,15,3813,15L3840,15L3840,150L3813.3,150C3786.7,150,3733,150,3680,150C3626.7,150,3573,150,3520,150C3466.7,150,3413,150,3360,150C3306.7,150,3253,150,3200,150C3146.7,150,3093,150,3040,150C2986.7,150,2933,150,2880,150C2826.7,150,2773,150,2720,150C2666.7,150,2613,150,2560,150C2506.7,150,2453,150,2400,150C2346.7,150,2293,150,2240,150C2186.7,150,2133,150,2080,150C2026.7,150,1973,150,1920,150C1866.7,150,1813,150,1760,150C1706.7,150,1653,150,1600,150C1546.7,150,1493,150,1440,150C1386.7,150,1333,150,1280,150C1226.7,150,1173,150,1120,150C1066.7,150,1013,150,960,150C906.7,150,853,150,800,150C746.7,150,693,150,640,150C586.7,150,533,150,480,150C426.7,150,373,150,320,150C266.7,150,213,150,160,150C106.7,150,53,150,27,150L0,150Z"/></svg>