<?xml version="1.0" standalone="no"?>
<svg xmlns:xlink="http://www.w3.org/1999/xlink" id="wave" style="transform:rotate(180deg); transition: 0.3s" viewBox="0 0 1440 100" version="1.1" xmlns="http://www.w3.org/2000/svg"><defs><linearGradient id="sw-gradient-0" x1="0" x2="0" y1="1" y2="0"><stop stop-color="rgba(0, 0, 0, 1)" offset="0%"/><stop stop-color="rgba(53, 47, 54, 1)" offset="100%"/></linearGradient></defs><path style="transform:translate(0, 0px); opacity:1" fill="url(#sw-gradient-0)" d="M0,50L21.8,55C43.6,60,87,70,131,73.3C174.5,77,218,73,262,68.3C305.5,63,349,57,393,50C436.4,43,480,37,524,36.7C567.3,37,611,43,655,48.3C698.2,53,742,57,785,51.7C829.1,47,873,33,916,30C960,27,1004,33,1047,30C1090.9,27,1135,13,1178,18.3C1221.8,23,1265,47,1309,55C1352.7,63,1396,57,1440,48.3C1483.6,40,1527,30,1571,25C1614.5,20,1658,20,1702,21.7C1745.5,23,1789,27,1833,35C1876.4,43,1920,57,1964,56.7C2007.3,57,2051,43,2095,31.7C2138.2,20,2182,10,2225,10C2269.1,10,2313,20,2356,26.7C2400,33,2444,37,2487,35C2530.9,33,2575,27,2618,35C2661.8,43,2705,67,2749,65C2792.7,63,2836,37,2880,21.7C2923.6,7,2967,3,3011,1.7C3054.5,0,3098,0,3120,0L3141.8,0L3141.8,100L3120,100C3098.2,100,3055,100,3011,100C2967.3,100,2924,100,2880,100C2836.4,100,2793,100,2749,100C2705.5,100,2662,100,2618,100C2574.5,100,2531,100,2487,100C2443.6,100,2400,100,2356,100C2312.7,100,2269,100,2225,100C2181.8,100,2138,100,2095,100C2050.9,100,2007,100,1964,100C1920,100,1876,100,1833,100C1789.1,100,1745,100,1702,100C1658.2,100,1615,100,1571,100C1527.3,100,1484,100,1440,100C1396.4,100,1353,100,1309,100C1265.5,100,1222,100,1178,100C1134.5,100,1091,100,1047,100C1003.6,100,960,100,916,100C872.7,100,829,100,785,100C741.8,100,698,100,655,100C610.9,100,567,100,524,100C480,100,436,100,393,100C349.1,100,305,100,262,100C218.2,100,175,100,131,100C87.3,100,44,100,22,100L0,100Z"/></svg>