<?xml version="1.0" standalone="no"?>
<svg xmlns:xlink="http://www.w3.org/1999/xlink" id="wave" style="transform:rotate(180deg); transition: 0.3s" viewBox="0 0 1440 100" version="1.1" xmlns="http://www.w3.org/2000/svg"><defs><linearGradient id="sw-gradient-0" x1="0" x2="0" y1="1" y2="0"><stop stop-color="rgba(42, 40, 38, 1)" offset="0%"/><stop stop-color="rgba(42, 40, 38, 1)" offset="100%"/></linearGradient></defs><path style="transform:translate(0, 0px); opacity:1" fill="url(#sw-gradient-0)" d="M0,30L26.7,40C53.3,50,107,70,160,68.3C213.3,67,267,43,320,40C373.3,37,427,53,480,58.3C533.3,63,587,57,640,58.3C693.3,60,747,70,800,61.7C853.3,53,907,27,960,13.3C1013.3,0,1067,0,1120,10C1173.3,20,1227,40,1280,40C1333.3,40,1387,20,1440,21.7C1493.3,23,1547,47,1600,51.7C1653.3,57,1707,43,1760,33.3C1813.3,23,1867,17,1920,11.7C1973.3,7,2027,3,2080,1.7C2133.3,0,2187,0,2240,0C2293.3,0,2347,0,2400,15C2453.3,30,2507,60,2560,60C2613.3,60,2667,30,2720,21.7C2773.3,13,2827,27,2880,26.7C2933.3,27,2987,13,3040,8.3C3093.3,3,3147,7,3200,8.3C3253.3,10,3307,10,3360,10C3413.3,10,3467,10,3520,11.7C3573.3,13,3627,17,3680,30C3733.3,43,3787,67,3813,78.3L3840,90L3840,100L3813.3,100C3786.7,100,3733,100,3680,100C3626.7,100,3573,100,3520,100C3466.7,100,3413,100,3360,100C3306.7,100,3253,100,3200,100C3146.7,100,3093,100,3040,100C2986.7,100,2933,100,2880,100C2826.7,100,2773,100,2720,100C2666.7,100,2613,100,2560,100C2506.7,100,2453,100,2400,100C2346.7,100,2293,100,2240,100C2186.7,100,2133,100,2080,100C2026.7,100,1973,100,1920,100C1866.7,100,1813,100,1760,100C1706.7,100,1653,100,1600,100C1546.7,100,1493,100,1440,100C1386.7,100,1333,100,1280,100C1226.7,100,1173,100,1120,100C1066.7,100,1013,100,960,100C906.7,100,853,100,800,100C746.7,100,693,100,640,100C586.7,100,533,100,480,100C426.7,100,373,100,320,100C266.7,100,213,100,160,100C106.7,100,53,100,27,100L0,100Z"/></svg>